<mxfile host="app.diagrams.net" modified="2024-03-19T15:22:09.326Z" agent="Mozilla/5.0 (Windows NT 10.0; Win64; x64) AppleWebKit/537.36 (KHTML, like Gecko) Chrome/121.0.0.0 Safari/537.36 OPR/107.0.0.0" etag="zsLLrQZ4TuT31lb2lKIx" version="24.0.7" type="github">
  <diagram name="Strona-1" id="ZoOaYBad7xFaz_XUg63a">
    <mxGraphModel dx="1052" dy="826" grid="0" gridSize="10" guides="1" tooltips="1" connect="1" arrows="1" fold="1" page="0" pageScale="1" pageWidth="827" pageHeight="1169" math="0" shadow="0">
      <root>
        <mxCell id="0" />
        <mxCell id="1" parent="0" />
        <mxCell id="sJ3ob-M2Ibpyx85hrxos-2" value="Sklep online" style="rounded=0;whiteSpace=wrap;html=1;" parent="1" vertex="1">
          <mxGeometry x="-18" y="164" width="218" height="107" as="geometry" />
        </mxCell>
      </root>
    </mxGraphModel>
  </diagram>
</mxfile>
